<svg viewBox="0 0 191 157" xmlns="http://www.w3.org/2000/svg"><g fill="none"><path d="m.5.35h189.92v155.91h-189.92z" fill="#fff" opacity="0"/><g transform="translate(35.79 17.59)"><path d="m119.19 44.3c-2.72 2.71-20.67 8.04-22.86 8.65s-3.13 0-3.13 0l-1.22-2.46-.4-.8c-.05 1.14-.08 2.29-.08 3.44 0 20.34 2.02 48.02 2.6 55.52.1 1.25.15 1.94.15 1.94s-1.14 3-34.65 3-34.65-3-34.65-3 .06-.69.15-1.94c.58-7.5 2.6-35.18 2.6-55.52 0-1.16-.03-2.31-.08-3.44l-.4.8-1.22 2.46s-.94.61-3.13 0-20.14-5.94-22.86-8.65c0 0 .28-.9.79-2.42 2.27-6.76 9.06-25.7 15.57-31.29 3.48-2.99 22.72-8.35 24.37-9 1.12-.45 2.15-.82 3.07-1.15h31.6c.92.32 1.95.7 3.07 1.15 1.65.66 20.89 6.01 24.37 9 6.5 5.59 13.29 24.53 15.57 31.29.51 1.52.79 2.42.79 2.42z" fill="#efefef"/><path d="m27.21 50.49-1.22 2.46s-.94.61-3.13 0-20.14-5.94-22.86-8.65c0 0 .28-.9.79-2.42 3.5 2.76 21.36 7.85 23.59 8.45 1.42.38 2.34.29 2.83.16z" fill="#b01353"/><path d="m27.61 49.69s-.4.8-.4.8c-.49.12-1.41.22-2.83-.16-2.23-.6-20.09-5.68-23.59-8.45 2.27-6.76 9.06-25.7 15.57-31.29 2.59 4.81 10.36 20.63 11.25 39.1z" fill="#f4f3f4"/><path d="m94.25 110.59s-1.14 3-34.65 3-34.65-3-34.65-3 .06-.69.15-1.94c0 0 4.25 2.61 34.5 2.61s34.5-2.61 34.5-2.61c.1 1.25.15 1.94.15 1.94z" fill="#dd005d"/><path d="m78.46 1.59c-1.03 2.94-5.32 12.67-18.87 12.67s-17.84-9.73-18.87-12.67c1.12-.45 2.15-.82 3.07-1.15 0 0 2.6 10.47 15.8 10.47s15.8-10.47 15.8-10.47c.92.32 1.95.7 3.07 1.15z" fill="#dd005d"/><path d="m118.4 41.88c-3.5 2.76-21.36 7.85-23.59 8.45-1.42.38-2.34.29-2.83.16l-.4-.8c.89-18.47 8.66-34.29 11.25-39.1 6.5 5.59 13.29 24.53 15.57 31.29z" fill="#f4f3f4"/><g fill="#b01353"><path d="m119.19 44.3c-2.72 2.71-20.67 8.04-22.86 8.65s-3.13 0-3.13 0l-1.22-2.46c.49.12 1.41.22 2.83-.16 2.23-.6 20.09-5.68 23.59-8.45.51 1.52.79 2.42.79 2.42z"/><path d="m75.39.44s-2.6 10.47-15.8 10.47-15.8-10.47-15.8-10.47 1.01-.44 15.8-.44 15.8.44 15.8.44z"/></g></g><g transform="translate(80.39 50.7)"><path d="m19.04 26.05 10.95-22.89-29.99-3.16z" fill="#dd005d"/><ellipse cx="18.82" cy="30.41" fill="#cccccb" rx="7.08" ry="1"/><circle cx="15.25" cy="8.44" fill="#fff" r="2.26"/><circle cx="20.29" cy="8.44" fill="#fff" r="2.26"/><g fill="#030202"><circle cx="19.66" cy="9.49" r="1"/><circle cx="14.62" cy="9.49" r="1"/></g></g></g></svg>